<?xml version="1.0" encoding="UTF-8" standalone="no"?>
<!-- Created with Inkscape (http://www.inkscape.org/) -->

<svg
   xmlns:dc="http://purl.org/dc/elements/1.1/"
   xmlns:cc="http://creativecommons.org/ns#"
   xmlns:rdf="http://www.w3.org/1999/02/22-rdf-syntax-ns#"
   xmlns:svg="http://www.w3.org/2000/svg"
   xmlns="http://www.w3.org/2000/svg"
   xmlns:sodipodi="http://sodipodi.sourceforge.net/DTD/sodipodi-0.dtd"
   xmlns:inkscape="http://www.inkscape.org/namespaces/inkscape"
   width="48"
   height="48"
   viewBox="0 0 48.00000037208982 48.00000100723403"
   id="svg2"
   version="1.1"
   inkscape:version="0.91 r13725"
   sodipodi:docname="ic_notify.svg"
   inkscape:export-filename="/home/zlsa/projects/android/autogyro-2/images/ic_launcher/ic_launcher.png"
   inkscape:export-xdpi="360"
   inkscape:export-ydpi="360">
  <defs
     id="defs4">
    <mask
       maskUnits="userSpaceOnUse"
       id="mask4954">
      <circle
         r="14.00002193450928"
         cy="1028.362182617188"
         cx="24"
         id="circle4956"
         style="opacity:1;fill:#ffffff;fill-opacity:1;fill-rule:nonzero;stroke:none;stroke-width:1;stroke-linecap:round;stroke-linejoin:round;stroke-miterlimit:4;stroke-dasharray:none;stroke-dashoffset:0;stroke-opacity:1" />
    </mask>
    <mask
       maskUnits="userSpaceOnUse"
       id="mask4960">
      <circle
         r="14.00002193450928"
         cy="1028.362182617188"
         cx="24"
         id="circle4962"
         style="opacity:1;fill:#ffffff;fill-opacity:1;fill-rule:nonzero;stroke:none;stroke-width:1;stroke-linecap:round;stroke-linejoin:round;stroke-miterlimit:4;stroke-dasharray:none;stroke-dashoffset:0;stroke-opacity:1" />
    </mask>
    <mask
       maskUnits="userSpaceOnUse"
       id="mask5005">
      <path
         sodipodi:nodetypes="ccccsccccccscccccccscccccscccccccsccccccsccccccccsccccccscccccccscccccscccccccsccccccsccccc"
         inkscape:connector-curvature="0"
         id="path5007"
         d="m -860.6691710052382,520.0015883306714 c -0.2381203235451,-0.4124715430271 -0.7340764172183,-0.5997981300823 -1.185422736241,-0.4477436576167 l -4.4743090476032,1.5119881507859 -0.00169145587,9.765625e-4 c -0.7407044967309,0.2506527122607 -1.5466253543071,0.05698553936 -1.8063973814429,-0.1365845433189 -0.1048515216438,-0.078130497498 -0.1610089770758,-0.1115001227496 -0.161599789771,-0.1119302963757 -0.083929546057,-0.061083719767 -0.161622779056,-0.1131392115052 -0.2311084953728,-0.1620104060464 l 0.00169145587,-9.765625e-4 c -0.4169125682264,-0.2935203012961 -0.8522421301983,-0.5795938865346 -1.3107407663698,-0.8444883529044 -0.4595409798674,-0.2651356049361 -0.9233675082143,-0.4975733919632 -1.3850058094431,-0.7114004307334 -0.073431864078,-0.034055154918 -0.1586641099051,-0.073734600859 -0.2573166678084,-0.1175605422784 -0.00672762518,-0.00298709822 -0.063552265403,-0.035647657254 -0.1774676719056,-0.084726774442 -0.2974996304619,-0.1281742274688 -0.8684842859295,-0.7296556178588 -1.0217222231737,-1.4962373017592 l -0.926426390756,-4.6319613282619 c -0.093820024456,-0.4669127207176 -0.5038714612778,-0.8028976420566 -0.9801168309897,-0.8030808986272 l -8.0012854152874,7.421348623e-4 c -0.4769880012337,-5.162120858e-4 -0.8879557908011,0.3358906272395 -0.9816841480973,0.8035794285104 l -0.9192387988248,4.5992379461468 c -0.00215153453,0.010876852473 -0.00412204095,0.021788732323 -0.00591070203,0.032731113768 -0.15377043583,0.766006458671 -0.7239701320802,1.3658332949609 -1.02076408625,1.4937034900735 -0.1104364651941,0.047580256112 -0.1683595580514,0.080532362469 -0.1786495425436,0.085101165566 -0.1034860599195,0.045973202278 -0.1877456383897,0.086859187095 -0.2562649573144,0.118636073732 -0.4613662877354,0.2137010443729 -0.9272402953801,0.4453121040162 -1.3871528258128,0.7106620778294 -0.4597560834319,0.2656209479669 -0.8932741487023,0.553274143728 -1.3090278258129,0.8459785471706 -0.061779250545,0.043451027522 -0.1393173412881,0.095978970579 -0.2308743323143,0.162613926268 -0.00910169179,0.00662698642 -0.066600599433,0.040313803127 -0.1630245425434,0.1121644594341 -0.2591358144385,0.1930960064441 -1.0637009406632,0.3869900104822 -1.8039672112501,0.1371558849265 -6.4288943e-6,-2.1697017e-6 -9.324919354e-4,-0.00167861161 -9.765625e-4,-0.00169145587 l -4.4730010633592,-1.513090104048 c -0.4518945616145,-0.1526732621621 -0.9487153252611,0.035031864078 -1.1867622730973,0.4483736964895 l -4.0012854152875,6.9289453651378 c -0.2379639800122,0.4125322168918 -0.152018221253,0.9356396387057 0.2054300440104,1.2503465236273 l 3.5481829842441,3.1182894532619 c 0.5872602437114,0.5159987884275 0.8226660799587,1.3112267004318 0.7849184018264,1.6329560517592 -0.014453941002,0.1231931946547 -0.014581387303,0.1887350561178 -0.015358296906,0.1960548994416 -0.011371900352,0.1073485921107 -0.01962461506,0.2010016051785 -0.026847917808,0.2816230422784 -0.045639503023,0.50670401561 -0.07625573883,1.0246084656229 -0.076412059443,1.5551504307334 1.560191124e-4,0.5295186997099 0.030238230295,1.0495619520152 0.07597798363,1.5573789779044 l 0.00169145587,-9.765625e-4 c 0.00758083783,0.084611992786 0.013815599572,0.1779240521366 0.024750879627,0.2811510310464 7.71349481e-5,7.26745725e-4 8.973504586e-4,0.066045341467 0.016134585229,0.1959146713757 0.037750595445,0.3217542160305 -0.1974891417321,1.1165357385833 -0.7849130064433,1.6326782933189 l -0.00169145587,9.765625e-4 -3.5465746726032,3.1188712242141 c -0.3573561954263,0.3148501419462 -0.4431046590672,0.838024011755 -0.2049539862411,1.2504780326167 l 4,6.9282032302756 c 0.238120323546,0.4124715430265 0.7340764172175,0.5997981300826 1.1854227362411,0.4477436576167 l 4.4743090476032,-1.5119881507859 0.00169145587,-9.765625e-4 c 0.740704496731,-0.2506527122611 1.5466253543093,-0.056985539358 1.8063973814433,0.1365845433189 0.104851521644,0.078130497499 0.1610089770764,0.1115001227513 0.1615997897709,0.1119302963757 0.083929546056,0.061083719765 0.1616227790548,0.1131392115034 0.2311084953727,0.1620104060464 l -0.00169145587,9.765625e-4 c 0.4169125682279,0.2935203012962 0.8522421302011,0.5795938865349 1.3107407663698,0.8444883529042 0.4595409798674,0.2651356049361 0.9233675082153,0.4975733919629 1.3850058094431,0.7114004307335 0.073431863976,0.034055154861 0.1586641098502,0.073734600834 0.2573166678085,0.1175605422784 0.00672762518,0.00298709822 0.063552265402,0.035647657253 0.1774676719058,0.084726774442 0.2974996304624,0.1281742274682 0.8684842859303,0.7296556178586 1.0217222231736,1.4962373017589 l 0.9264263907559,4.6319613282622 c 0.093820024456,0.4669127207175 0.5038714612775,0.8028976420565 0.9801168309896,0.8030808986271 l 8.0012854152875,-7.421348622e-4 c 0.4769880012329,5.162120862e-4 0.8879557908014,-0.3358906272391 0.9816841480973,-0.8035794285105 l 0.9261260633592,-4.6302776040479 c 1.09118316e-5,-4.45883555e-5 -9.778979302e-4,-0.00168480343 -9.765625e-4,-0.00169145587 0.1537704358299,-0.7660064586706 0.723970132081,-1.3658332949612 1.0207640862501,-1.4937034900732 0.1104364651947,-0.047580256112 0.1683595580522,-0.08053236247 0.1786495425434,-0.085101165566 0.1034860599194,-0.045973202279 0.1877456383905,-0.086859187096 0.2562649573143,-0.1186360737322 0.4613662877363,-0.2137010443732 0.9272402953803,-0.4453121040162 1.3871528258129,-0.7106620778294 0.4597560834319,-0.2656209479668 0.8932741487031,-0.5532741437283 1.3090278258128,-0.8459785471706 0.061779250545,-0.043451027522 0.1393173412882,-0.095978970579 0.2308743323144,-0.1626139262678 0.00910169179,-0.00662698642 0.066600599434,-0.040313803127 0.1630245425436,-0.1121644594342 0.2591358144391,-0.1930960064445 1.0637009406631,-0.3869900104825 1.80396721125,-0.1371558849268 6.4288944e-6,2.1697019e-6 9.324919355e-4,0.00167861161 9.765625e-4,0.00169145587 l 4.4730010633592,1.5130901040479 c 0.4518945616144,0.1526732621621 0.9487153252604,-0.035031864078 1.1867622730973,-0.4483736964895 l 4.0012854152874,-6.9289453651378 c 0.2379639800123,-0.4125322168913 0.152018221253,-0.9356396387057 -0.2054300440103,-1.2503465236271 l -3.548182984244,-3.1182894532622 c -0.5872602437113,-0.5159987884271 -0.8226660799572,-1.311226700429 -0.7849184018263,-1.6329560517589 0.014453941002,-0.1231931946551 0.014581387304,-0.1887350561171 0.015358296906,-0.1960548994416 0.011371900358,-0.1073485921212 0.019624615061,-0.201001605192 0.026847917808,-0.2816230422784 0.045639503023,-0.5067040156085 0.076255738832,-1.0246084656196 0.076412059443,-1.5551504307335 -1.560191123e-4,-0.5295186997097 -0.030238230294,-1.0495619520149 -0.07597798363,-1.5573789779042 l -0.00169145587,9.765625e-4 c -0.00758083783,-0.084611992832 -0.013815599575,-0.1779240521606 -0.024750879627,-0.2811510310464 -7.71349482e-5,-7.267457272e-4 -8.973504583e-4,-0.066045341466 -0.016134585229,-0.1959146713757 -0.037750595444,-0.3217542160314 0.1974891417321,-1.1165357385827 0.7849130064429,-1.6326782933189 l 0.00169145587,-9.765625e-4 3.5465746726032,-3.1188712242141 c 0.3573561954255,-0.3148501419455 0.443104659068,-0.8380240117557 0.204953986241,-1.2504780326167 z"
         style="color:#000000;font-style:normal;font-variant:normal;font-weight:normal;font-stretch:normal;font-size:medium;line-height:normal;font-family:sans-serif;text-indent:0;text-align:start;text-decoration:none;text-decoration-line:none;text-decoration-style:solid;text-decoration-color:#000000;letter-spacing:normal;word-spacing:normal;text-transform:none;direction:ltr;block-progression:tb;writing-mode:lr-tb;baseline-shift:baseline;text-anchor:start;white-space:normal;clip-rule:nonzero;display:inline;overflow:visible;visibility:visible;opacity:1;isolation:auto;mix-blend-mode:normal;color-interpolation:sRGB;color-interpolation-filters:linearRGB;solid-color:#000000;solid-opacity:1;fill:#fafafa;fill-opacity:1;fill-rule:nonzero;stroke:none;stroke-width:2;stroke-linecap:round;stroke-linejoin:round;stroke-miterlimit:4;stroke-dasharray:none;stroke-dashoffset:0;stroke-opacity:1;color-rendering:auto;image-rendering:auto;shape-rendering:auto;text-rendering:auto;enable-background:accumulate" />
    </mask>
  </defs>
  <sodipodi:namedview
     id="base"
     pagecolor="#727487"
     bordercolor="#27292f"
     borderopacity="0.4941176471"
     inkscape:pageopacity="0"
     inkscape:pageshadow="2"
     inkscape:zoom="1"
     inkscape:cx="27.81599399973925"
     inkscape:cy="27.76996959665263"
     inkscape:document-units="px"
     inkscape:current-layer="layer1"
     showgrid="false"
     borderlayer="true"
     units="px"
     inkscape:window-width="1600"
     inkscape:window-height="862"
     inkscape:window-x="0"
     inkscape:window-y="18"
     inkscape:window-maximized="0"
     showborder="true"
     inkscape:snap-smooth-nodes="true"
     inkscape:object-nodes="true"
     showguides="false"
     inkscape:guide-bbox="true"
     inkscape:snap-center="true"
     inkscape:snap-global="true"
     inkscape:snap-bbox="true"
     inkscape:bbox-nodes="true"
     inkscape:snap-bbox-edge-midpoints="true">
    <inkscape:grid
       type="xygrid"
       id="grid3374"
       empcolor="#000000"
       empopacity="0.0823529412"
       color="#000000"
       opacity="0.0431372549"
       spacingx="0.5000000038759357"
       spacingy="0.5000000104920211"
       empspacing="8" />
    <sodipodi:guide
       position="176.0000013643294,48.00000100723403"
       orientation="0,1"
       id="guide3357" />
    <sodipodi:guide
       position="48.00000037208982,64.00000134297871"
       orientation="1,0"
       id="guide3363" />
  </sodipodi:namedview>
  <metadata
     id="metadata7">
    <rdf:RDF>
      <cc:Work
         rdf:about="">
        <dc:format>image/svg+xml</dc:format>
        <dc:type
           rdf:resource="http://purl.org/dc/dcmitype/StillImage" />
        <dc:title></dc:title>
      </cc:Work>
    </rdf:RDF>
  </metadata>
  <g
     inkscape:groupmode="layer"
     id="layer3"
     inkscape:label="gear">
    <path
       style="color:#000000;font-style:normal;font-variant:normal;font-weight:normal;font-stretch:normal;font-size:medium;line-height:normal;font-family:sans-serif;text-indent:0;text-align:start;text-decoration:none;text-decoration-line:none;text-decoration-style:solid;text-decoration-color:#000000;letter-spacing:normal;word-spacing:normal;text-transform:none;direction:ltr;block-progression:tb;writing-mode:lr-tb;baseline-shift:baseline;text-anchor:start;white-space:normal;clip-rule:nonzero;display:inline;overflow:visible;visibility:visible;opacity:1;isolation:auto;mix-blend-mode:normal;color-interpolation:sRGB;color-interpolation-filters:linearRGB;solid-color:#000000;solid-opacity:1;fill:#ffffff;fill-opacity:1;fill-rule:nonzero;stroke:none;stroke-width:2;stroke-linecap:round;stroke-linejoin:round;stroke-miterlimit:4;stroke-dasharray:none;stroke-dashoffset:0;stroke-opacity:1;color-rendering:auto;image-rendering:auto;shape-rendering:auto;text-rendering:auto;enable-background:accumulate"
       d="M 20 1 C 19.52372900362778 0.9999824778340098 19.11352137359726 1.335829760589036 19.01953125 1.802734375 L 18.091796875 6.43359375 L 18.091796875 6.435546875 C 17.93851624297984 7.202342141996951 17.36783512258021 7.803456491647012 17.0703125 7.931640625 C 16.95022374353467 7.983379457620003 16.89324607263593 8.01532842800998 16.892578125 8.015625 C 16.797713298896 8.057768259129944 16.71378530414441 8.099024826739992 16.63671875 8.134765625 L 16.63671875 8.1328125 C 16.17406642843795 8.347109224593055 15.7086546552838 8.581078891660013 15.25 8.845703125 C 14.79061534074395 9.111109485177053 14.35740504820547 9.396576148160989 13.94140625 9.689453125 C 13.8751976886723 9.736019407279969 13.79821815756531 9.789992974417032 13.7109375 9.853515625 C 13.704986784465 9.857848370200031 13.6482895905311 9.890729672679981 13.548828125 9.96484375 C 13.28907617267078 10.15839887386198 12.48268568095568 10.35214539547303 11.7421875 10.1015625 L 7.267578125 8.587890625 C 6.816309835280529 8.435684789203947 6.320312639701421 8.622807289680054 6.08203125 9.03515625 L 2.08203125 15.96484375 C 1.843090196603106 16.37766937032598 1.928943170681889 16.90178133589097 2.287109375 17.216796875 L 5.810546875 20.3125 C 5.8188907382879 20.3198017098 5.827355450232871 20.32696415833993 5.8359375 20.333984375 C 6.422433334756983 20.85015670811504 6.65679876473073 21.64387754844302 6.619140625 21.96484375 C 6.60512810291446 22.08427466241801 6.60470391769949 22.15091358547693 6.603515625 22.162109375 C 6.59158655610671 22.27471753296709 6.58486506838187 22.36813146084296 6.578125 22.443359375 C 6.53251238937447 22.94976482281504 6.500156447000678 23.46902907822005 6.5 24 C 6.500156447000679 24.53097092177995 6.53251238937447 25.05023517718405 6.578125 25.556640625 C 6.5848650683819 25.63186853916 6.591586556106711 25.72528246703291 6.603515625 25.837890625 C 6.6047039176995 25.84908641451989 6.605128102914399 25.91572533757994 6.619140625 26.03515625 C 6.65679876473073 26.35612245155608 6.42243333475688 27.14984329188496 5.8359375 27.666015625 C 5.8359375 27.666015625 5.833984375 27.666015625 5.833984375 27.666015625 L 2.287109375 30.783203125 C 1.928943170681656 31.09821866410903 1.843090196603339 31.62233062967493 2.08203125 32.03515625 L 6.08203125 38.96484375 C 6.320312639701714 39.37719271032211 6.816309835280235 39.56431521079594 7.267578125 39.412109375 L 11.7421875 37.8984375 C 12.48268568095588 37.64785460452708 13.28907617267366 37.84160112613995 13.548828125 38.03515625 C 13.6482895906433 38.10927032742006 13.70498678453115 38.14215162988603 13.7109375 38.146484375 C 13.7982181576523 38.21000702564993 13.87519768875576 38.26398059277108 13.94140625 38.310546875 C 14.35740504820644 38.6034238518389 14.79061534074684 38.88889051482306 15.25 39.154296875 C 15.70865465528381 39.4189211083401 16.1740664284379 39.65289077540706 16.63671875 39.8671875 L 16.63671875 39.865234375 C 16.7137853041333 39.90097517324989 16.79771329888089 39.94223174087006 16.892578125 39.984375 C 16.89324607273413 39.984671572038 16.9502237437409 40.01662054244002 17.0703125 40.068359375 C 17.3678351225797 40.19654350835208 17.93851624298041 40.79765785800305 18.091796875 41.564453125 L 18.091796875 41.56640625 L 19.01953125 46.197265625 C 19.1135213735974 46.66417023941199 19.52372900362766 47.00001752216508 20 47 L 28 47 C 28.47627099637234 47.00001752216508 28.88647862640262 46.66417023941199 28.98046875 46.197265625 L 29.908203125 41.56640625 L 29.908203125 41.564453125 C 30.06148375702011 40.79765785800305 30.63216487742212 40.19654350835208 30.9296875 40.068359375 C 31.04977625646627 40.01662054238 31.10675392736604 39.98467157199002 31.107421875 39.984375 C 31.2022867011019 39.94223174087006 31.28621469585345 39.90097517325989 31.36328125 39.865234375 L 31.36328125 39.8671875 C 31.82593357156293 39.65289077540592 32.29134534471797 39.41892110833805 32.75 39.154296875 C 33.2093846592561 38.88889051482306 33.64259495179475 38.60342385183799 34.05859375 38.310546875 C 34.1248023112275 38.26398059277994 34.20178184238542 38.2100070256181 34.2890625 38.146484375 C 34.295013215535 38.14215162980008 34.3517104094676 38.10927032732002 34.451171875 38.03515625 C 34.71092382732913 37.84160112613699 35.51731431904472 37.64785460452595 36.2578125 37.8984375 L 40.732421875 39.412109375 C 41.18369016471977 39.56431521079594 41.67968736029829 39.37719271032006 41.91796875 38.96484375 L 45.91796875 32.03515625 C 46.15690980339666 31.62233062967493 46.07105682931834 31.09821866410903 45.712890625 30.783203125 L 42.166015625 27.666015625 C 42.166015625 27.666015625 42.1640625 27.666015625 42.1640625 27.666015625 C 41.5775666652431 27.14984329188496 41.34320123526926 26.35612245155608 41.380859375 26.03515625 C 41.3948718970856 25.91572533758108 41.3952960823005 25.84908641452193 41.396484375 25.837890625 C 41.4084134438933 25.72528246703291 41.4151349316181 25.6318685391559 41.421875 25.556640625 C 41.4674876106255 25.05023517718405 41.4998435529993 24.53097092177995 41.5 24 C 41.49984355299933 23.46902907822005 41.4674876106255 22.94976482281504 41.421875 22.443359375 C 41.415134931618 22.36813146084 41.4084134438933 22.27471753296709 41.396484375 22.162109375 C 41.395296082301 22.15091358548011 41.394871897086 22.08427466242006 41.380859375 21.96484375 C 41.3432012352693 21.64387754844302 41.57756666524312 20.85015670811504 42.1640625 20.333984375 C 42.1640625 20.333984375 42.166015625 20.333984375 42.166015625 20.333984375 L 45.712890625 17.216796875 C 46.07105682931811 16.90178133589097 46.15690980339689 16.37766937032598 45.91796875 15.96484375 L 41.91796875 9.03515625 C 41.67968736029858 8.622807289678008 41.18369016471947 8.435684789203947 40.732421875 8.587890625 L 36.2578125 10.1015625 C 35.51731431904446 10.35214539547303 34.71092382732941 10.15839887386005 34.451171875 9.96484375 C 34.3517104093564 9.890729672580051 34.29501321546968 9.85784837011397 34.2890625 9.853515625 C 34.2017818423416 9.789992974339953 34.1248023112326 9.736019407221988 34.05859375 9.689453125 C 33.64259495179483 9.396576148162012 33.20938465925699 9.111109485177053 32.75 8.845703125 C 32.29134534471628 8.581078891660013 31.8259335715624 8.347109224593055 31.36328125 8.1328125 L 31.36328125 8.134765625 C 31.2862146958264 8.099024826729988 31.20228670109718 8.057768259120053 31.107421875 8.015625 C 31.10675392726404 8.015328427960981 31.0497762562597 7.983379457559977 30.9296875 7.931640625 C 30.63216487741993 7.803456491647012 30.0614837570204 7.202342141996951 29.908203125 6.435546875 L 29.908203125 6.43359375 L 28.98046875 1.802734375 C 28.8864786264027 1.335829760589036 28.47627099637222 0.9999824778340098 28 1 L 20 1 z M 24 8 L 29.818359375 13.818359375 L 24 19.63671875 L 24 15.2734375 C 19.17818181818179 15.2734375 15.2734375 19.178181818182 15.2734375 24 C 15.2734375 25.47636363636298 15.64374289772726 26.85772017045497 16.291015625 28.072265625 L 14.16796875 30.197265625 C 13.03342329545453 28.40090198863618 12.36328125 26.28363636363611 12.36328125 24 C 12.36328124999999 17.57090909090891 17.57090909090907 12.36328125 24 12.36328125 L 24 8 z M 33.83203125 17.802734375 C 34.96657670454545 19.59909801136405 35.63671875 21.71636363636389 35.63671875 24 C 35.63671875 30.42909090909097 30.42909090909099 35.63671875 24 35.63671875 L 24 40 L 18.181640625 34.181640625 L 24 28.36328125 L 24 32.7265625 C 28.82181818181821 32.7265625 32.7265625 28.82181818181789 32.7265625 24 C 32.7265625 22.52363636363611 32.35625710227273 21.14227982954503 31.708984375 19.927734375 L 33.83203125 17.802734375 z "
       id="path4284" />
  </g>
  <g
     inkscape:label="dot"
     inkscape:groupmode="layer"
     id="layer1"
     transform="translate(0,-1004.362160509965)">
    <circle
       r="14.00002193450928"
       cy="1028.362182617188"
       cx="24"
       id="circle4316"
       style="opacity:1;fill:#607d8b;fill-opacity:0;fill-rule:nonzero;stroke:none;stroke-width:2;stroke-linecap:round;stroke-linejoin:round;stroke-miterlimit:4;stroke-dasharray:none;stroke-dashoffset:0;stroke-opacity:0.5019607843" />
  </g>
</svg>
