<?xml version="1.0" encoding="UTF-8" standalone="no"?>
<!-- Created with Inkscape (http://www.inkscape.org/) -->

<svg
   xmlns:dc="http://purl.org/dc/elements/1.1/"
   xmlns:cc="http://creativecommons.org/ns#"
   xmlns:rdf="http://www.w3.org/1999/02/22-rdf-syntax-ns#"
   xmlns:svg="http://www.w3.org/2000/svg"
   xmlns="http://www.w3.org/2000/svg"
   xmlns:xlink="http://www.w3.org/1999/xlink"
   xmlns:sodipodi="http://sodipodi.sourceforge.net/DTD/sodipodi-0.dtd"
   xmlns:inkscape="http://www.inkscape.org/namespaces/inkscape"
   width="48"
   height="48"
   viewBox="0 0 48.00000037208982 48.00000100723403"
   id="svg2"
   version="1.1"
   inkscape:version="0.91 r13725"
   sodipodi:docname="ic_launcher.svg"
   inkscape:export-filename="/home/zlsa/projects/android/autogyro-2/images/ic_launcher/ic_launcher.png"
   inkscape:export-xdpi="360"
   inkscape:export-ydpi="360">
  <defs
     id="defs4">
    <linearGradient
       inkscape:collect="always"
       id="linearGradient4985">
      <stop
         style="stop-color:#75aa38;stop-opacity:1"
         offset="0"
         id="stop4987" />
      <stop
         style="stop-color:#aed581;stop-opacity:1"
         offset="1"
         id="stop4989" />
    </linearGradient>
    <linearGradient
       inkscape:collect="always"
       id="linearGradient4977">
      <stop
         style="stop-color:#000000;stop-opacity:1;"
         offset="0"
         id="stop4979" />
      <stop
         style="stop-color:#000000;stop-opacity:0;"
         offset="1"
         id="stop4981" />
    </linearGradient>
    <mask
       maskUnits="userSpaceOnUse"
       id="mask4954">
      <circle
         r="14.00002193450928"
         cy="1028.362182617188"
         cx="24"
         id="circle4956"
         style="opacity:1;fill:#ffffff;fill-opacity:1;fill-rule:nonzero;stroke:none;stroke-width:1;stroke-linecap:round;stroke-linejoin:round;stroke-miterlimit:4;stroke-dasharray:none;stroke-dashoffset:0;stroke-opacity:1" />
    </mask>
    <mask
       maskUnits="userSpaceOnUse"
       id="mask4960">
      <circle
         r="14.00002193450928"
         cy="1028.362182617188"
         cx="24"
         id="circle4962"
         style="opacity:1;fill:#ffffff;fill-opacity:1;fill-rule:nonzero;stroke:none;stroke-width:1;stroke-linecap:round;stroke-linejoin:round;stroke-miterlimit:4;stroke-dasharray:none;stroke-dashoffset:0;stroke-opacity:1" />
    </mask>
    <linearGradient
       inkscape:collect="always"
       xlink:href="#linearGradient4977"
       id="linearGradient4983"
       x1="24"
       y1="1028.362182617188"
       x2="24"
       y2="1060.362182617188"
       gradientUnits="userSpaceOnUse"
       gradientTransform="translate(-902.58775529228,-493.3964705641558)" />
    <linearGradient
       inkscape:collect="always"
       xlink:href="#linearGradient4985"
       id="linearGradient4991"
       x1="25.5"
       y1="1029.862182617188"
       x2="22.5"
       y2="1026.862182617188"
       gradientUnits="userSpaceOnUse" />
    <mask
       maskUnits="userSpaceOnUse"
       id="mask5005">
      <path
         sodipodi:nodetypes="ccccsccccccscccccccscccccscccccccsccccccsccccccccsccccccscccccccscccccscccccccsccccccsccccc"
         inkscape:connector-curvature="0"
         id="path5007"
         d="m -860.6691710052382,520.0015883306714 c -0.2381203235451,-0.4124715430271 -0.7340764172183,-0.5997981300823 -1.185422736241,-0.4477436576167 l -4.4743090476032,1.5119881507859 -0.00169145587,9.765625e-4 c -0.7407044967309,0.2506527122607 -1.5466253543071,0.05698553936 -1.8063973814429,-0.1365845433189 -0.1048515216438,-0.078130497498 -0.1610089770758,-0.1115001227496 -0.161599789771,-0.1119302963757 -0.083929546057,-0.061083719767 -0.161622779056,-0.1131392115052 -0.2311084953728,-0.1620104060464 l 0.00169145587,-9.765625e-4 c -0.4169125682264,-0.2935203012961 -0.8522421301983,-0.5795938865346 -1.3107407663698,-0.8444883529044 -0.4595409798674,-0.2651356049361 -0.9233675082143,-0.4975733919632 -1.3850058094431,-0.7114004307334 -0.073431864078,-0.034055154918 -0.1586641099051,-0.073734600859 -0.2573166678084,-0.1175605422784 -0.00672762518,-0.00298709822 -0.063552265403,-0.035647657254 -0.1774676719056,-0.084726774442 -0.2974996304619,-0.1281742274688 -0.8684842859295,-0.7296556178588 -1.0217222231737,-1.4962373017592 l -0.926426390756,-4.6319613282619 c -0.093820024456,-0.4669127207176 -0.5038714612778,-0.8028976420566 -0.9801168309897,-0.8030808986272 l -8.0012854152874,7.421348623e-4 c -0.4769880012337,-5.162120858e-4 -0.8879557908011,0.3358906272395 -0.9816841480973,0.8035794285104 l -0.9192387988248,4.5992379461468 c -0.00215153453,0.010876852473 -0.00412204095,0.021788732323 -0.00591070203,0.032731113768 -0.15377043583,0.766006458671 -0.7239701320802,1.3658332949609 -1.02076408625,1.4937034900735 -0.1104364651941,0.047580256112 -0.1683595580514,0.080532362469 -0.1786495425436,0.085101165566 -0.1034860599195,0.045973202278 -0.1877456383897,0.086859187095 -0.2562649573144,0.118636073732 -0.4613662877354,0.2137010443729 -0.9272402953801,0.4453121040162 -1.3871528258128,0.7106620778294 -0.4597560834319,0.2656209479669 -0.8932741487023,0.553274143728 -1.3090278258129,0.8459785471706 -0.061779250545,0.043451027522 -0.1393173412881,0.095978970579 -0.2308743323143,0.162613926268 -0.00910169179,0.00662698642 -0.066600599433,0.040313803127 -0.1630245425434,0.1121644594341 -0.2591358144385,0.1930960064441 -1.0637009406632,0.3869900104822 -1.8039672112501,0.1371558849265 -6.4288943e-6,-2.1697017e-6 -9.324919354e-4,-0.00167861161 -9.765625e-4,-0.00169145587 l -4.4730010633592,-1.513090104048 c -0.4518945616145,-0.1526732621621 -0.9487153252611,0.035031864078 -1.1867622730973,0.4483736964895 l -4.0012854152875,6.9289453651378 c -0.2379639800122,0.4125322168918 -0.152018221253,0.9356396387057 0.2054300440104,1.2503465236273 l 3.5481829842441,3.1182894532619 c 0.5872602437114,0.5159987884275 0.8226660799587,1.3112267004318 0.7849184018264,1.6329560517592 -0.014453941002,0.1231931946547 -0.014581387303,0.1887350561178 -0.015358296906,0.1960548994416 -0.011371900352,0.1073485921107 -0.01962461506,0.2010016051785 -0.026847917808,0.2816230422784 -0.045639503023,0.50670401561 -0.07625573883,1.0246084656229 -0.076412059443,1.5551504307334 1.560191124e-4,0.5295186997099 0.030238230295,1.0495619520152 0.07597798363,1.5573789779044 l 0.00169145587,-9.765625e-4 c 0.00758083783,0.084611992786 0.013815599572,0.1779240521366 0.024750879627,0.2811510310464 7.71349481e-5,7.26745725e-4 8.973504586e-4,0.066045341467 0.016134585229,0.1959146713757 0.037750595445,0.3217542160305 -0.1974891417321,1.1165357385833 -0.7849130064433,1.6326782933189 l -0.00169145587,9.765625e-4 -3.5465746726032,3.1188712242141 c -0.3573561954263,0.3148501419462 -0.4431046590672,0.838024011755 -0.2049539862411,1.2504780326167 l 4,6.9282032302756 c 0.238120323546,0.4124715430265 0.7340764172175,0.5997981300826 1.1854227362411,0.4477436576167 l 4.4743090476032,-1.5119881507859 0.00169145587,-9.765625e-4 c 0.740704496731,-0.2506527122611 1.5466253543093,-0.056985539358 1.8063973814433,0.1365845433189 0.104851521644,0.078130497499 0.1610089770764,0.1115001227513 0.1615997897709,0.1119302963757 0.083929546056,0.061083719765 0.1616227790548,0.1131392115034 0.2311084953727,0.1620104060464 l -0.00169145587,9.765625e-4 c 0.4169125682279,0.2935203012962 0.8522421302011,0.5795938865349 1.3107407663698,0.8444883529042 0.4595409798674,0.2651356049361 0.9233675082153,0.4975733919629 1.3850058094431,0.7114004307335 0.073431863976,0.034055154861 0.1586641098502,0.073734600834 0.2573166678085,0.1175605422784 0.00672762518,0.00298709822 0.063552265402,0.035647657253 0.1774676719058,0.084726774442 0.2974996304624,0.1281742274682 0.8684842859303,0.7296556178586 1.0217222231736,1.4962373017589 l 0.9264263907559,4.6319613282622 c 0.093820024456,0.4669127207175 0.5038714612775,0.8028976420565 0.9801168309896,0.8030808986271 l 8.0012854152875,-7.421348622e-4 c 0.4769880012329,5.162120862e-4 0.8879557908014,-0.3358906272391 0.9816841480973,-0.8035794285105 l 0.9261260633592,-4.6302776040479 c 1.09118316e-5,-4.45883555e-5 -9.778979302e-4,-0.00168480343 -9.765625e-4,-0.00169145587 0.1537704358299,-0.7660064586706 0.723970132081,-1.3658332949612 1.0207640862501,-1.4937034900732 0.1104364651947,-0.047580256112 0.1683595580522,-0.08053236247 0.1786495425434,-0.085101165566 0.1034860599194,-0.045973202279 0.1877456383905,-0.086859187096 0.2562649573143,-0.1186360737322 0.4613662877363,-0.2137010443732 0.9272402953803,-0.4453121040162 1.3871528258129,-0.7106620778294 0.4597560834319,-0.2656209479668 0.8932741487031,-0.5532741437283 1.3090278258128,-0.8459785471706 0.061779250545,-0.043451027522 0.1393173412882,-0.095978970579 0.2308743323144,-0.1626139262678 0.00910169179,-0.00662698642 0.066600599434,-0.040313803127 0.1630245425436,-0.1121644594342 0.2591358144391,-0.1930960064445 1.0637009406631,-0.3869900104825 1.80396721125,-0.1371558849268 6.4288944e-6,2.1697019e-6 9.324919355e-4,0.00167861161 9.765625e-4,0.00169145587 l 4.4730010633592,1.5130901040479 c 0.4518945616144,0.1526732621621 0.9487153252604,-0.035031864078 1.1867622730973,-0.4483736964895 l 4.0012854152874,-6.9289453651378 c 0.2379639800123,-0.4125322168913 0.152018221253,-0.9356396387057 -0.2054300440103,-1.2503465236271 l -3.548182984244,-3.1182894532622 c -0.5872602437113,-0.5159987884271 -0.8226660799572,-1.311226700429 -0.7849184018263,-1.6329560517589 0.014453941002,-0.1231931946551 0.014581387304,-0.1887350561171 0.015358296906,-0.1960548994416 0.011371900358,-0.1073485921212 0.019624615061,-0.201001605192 0.026847917808,-0.2816230422784 0.045639503023,-0.5067040156085 0.076255738832,-1.0246084656196 0.076412059443,-1.5551504307335 -1.560191123e-4,-0.5295186997097 -0.030238230294,-1.0495619520149 -0.07597798363,-1.5573789779042 l -0.00169145587,9.765625e-4 c -0.00758083783,-0.084611992832 -0.013815599575,-0.1779240521606 -0.024750879627,-0.2811510310464 -7.71349482e-5,-7.267457272e-4 -8.973504583e-4,-0.066045341466 -0.016134585229,-0.1959146713757 -0.037750595444,-0.3217542160314 0.1974891417321,-1.1165357385827 0.7849130064429,-1.6326782933189 l 0.00169145587,-9.765625e-4 3.5465746726032,-3.1188712242141 c 0.3573561954255,-0.3148501419455 0.443104659068,-0.8380240117557 0.204953986241,-1.2504780326167 z"
         style="color:#000000;font-style:normal;font-variant:normal;font-weight:normal;font-stretch:normal;font-size:medium;line-height:normal;font-family:sans-serif;text-indent:0;text-align:start;text-decoration:none;text-decoration-line:none;text-decoration-style:solid;text-decoration-color:#000000;letter-spacing:normal;word-spacing:normal;text-transform:none;direction:ltr;block-progression:tb;writing-mode:lr-tb;baseline-shift:baseline;text-anchor:start;white-space:normal;clip-rule:nonzero;display:inline;overflow:visible;visibility:visible;opacity:1;isolation:auto;mix-blend-mode:normal;color-interpolation:sRGB;color-interpolation-filters:linearRGB;solid-color:#000000;solid-opacity:1;fill:#fafafa;fill-opacity:1;fill-rule:nonzero;stroke:none;stroke-width:2;stroke-linecap:round;stroke-linejoin:round;stroke-miterlimit:4;stroke-dasharray:none;stroke-dashoffset:0;stroke-opacity:1;color-rendering:auto;image-rendering:auto;shape-rendering:auto;text-rendering:auto;enable-background:accumulate" />
    </mask>
    <filter
       inkscape:collect="always"
       style="color-interpolation-filters:sRGB"
       id="filter5015"
       x="-0.02451556466777115"
       width="1.049031129335542"
       y="-0.0235056734412323"
       height="1.047011346882465">
      <feGaussianBlur
         inkscape:collect="always"
         stdDeviation="0.4505254076370487"
         id="feGaussianBlur5017" />
    </filter>
    <filter
       inkscape:collect="always"
       style="color-interpolation-filters:sRGB"
       id="filter5023"
       x="-0.0612889116694279"
       width="1.122577823338856"
       y="-0.05876418360308076"
       height="1.117528367206162">
      <feGaussianBlur
         inkscape:collect="always"
         stdDeviation="1.126313519092622"
         id="feGaussianBlur5025" />
    </filter>
    <filter
       inkscape:collect="always"
       style="color-interpolation-filters:sRGB"
       id="filter5050"
       x="-0.036"
       width="1.072"
       y="-0.036"
       height="1.072">
      <feGaussianBlur
         inkscape:collect="always"
         stdDeviation="0.4200006580352784"
         id="feGaussianBlur5052" />
    </filter>
    <filter
       inkscape:collect="always"
       style="color-interpolation-filters:sRGB"
       id="filter5076"
       x="-0.07199999999999999"
       width="1.144"
       y="-0.07200000000000001"
       height="1.144">
      <feGaussianBlur
         inkscape:collect="always"
         stdDeviation="0.8400013160705568"
         id="feGaussianBlur5078" />
    </filter>
  </defs>
  <sodipodi:namedview
     id="base"
     pagecolor="#727487"
     bordercolor="#27292f"
     borderopacity="0.4941176471"
     inkscape:pageopacity="0"
     inkscape:pageshadow="2"
     inkscape:zoom="4"
     inkscape:cx="17.496624"
     inkscape:cy="89.148522"
     inkscape:document-units="px"
     inkscape:current-layer="layer1"
     showgrid="false"
     borderlayer="true"
     units="px"
     inkscape:window-width="1600"
     inkscape:window-height="862"
     inkscape:window-x="0"
     inkscape:window-y="18"
     inkscape:window-maximized="0"
     showborder="true"
     inkscape:snap-smooth-nodes="true"
     inkscape:object-nodes="true"
     showguides="false"
     inkscape:guide-bbox="true"
     inkscape:snap-center="true"
     inkscape:snap-global="false"
     inkscape:snap-bbox="true"
     inkscape:bbox-nodes="true"
     inkscape:snap-bbox-edge-midpoints="true">
    <inkscape:grid
       type="xygrid"
       id="grid3374"
       empcolor="#000000"
       empopacity="0.0823529412"
       color="#000000"
       opacity="0.0431372549"
       spacingx="0.5000000038759357"
       spacingy="0.5000000104920211"
       empspacing="8" />
    <sodipodi:guide
       position="176.0000013643294,48.00000100723403"
       orientation="0,1"
       id="guide3357" />
    <sodipodi:guide
       position="48.00000037208982,64.00000134297871"
       orientation="1,0"
       id="guide3363" />
  </sodipodi:namedview>
  <metadata
     id="metadata7">
    <rdf:RDF>
      <cc:Work
         rdf:about="">
        <dc:format>image/svg+xml</dc:format>
        <dc:type
           rdf:resource="http://purl.org/dc/dcmitype/StillImage" />
        <dc:title />
      </cc:Work>
    </rdf:RDF>
  </metadata>
  <g
     inkscape:groupmode="layer"
     id="layer2"
     inkscape:label="gear shadow"
     style="display:inline">
    <path
       transform="translate(0,-1004.362160509965)"
       sodipodi:nodetypes="ccccsccccccscccccccscccccscccccccsccccccsccccccccsccccccscccccccscccccscccccccsccccccsccccc"
       inkscape:connector-curvature="0"
       id="path5009"
       d="m 20,1005.362160509965 c -0.47627099637222,-1.7522166e-5 -0.88647862640274,0.335829760589 -0.98046875,0.802734375 l -0.927734375,4.630859375 0,0.001953125 c -0.15328063202016,0.766795266997 -0.72396175241979,1.367909616647 -1.021484375,1.49609375 -0.12008875646533,0.05173883262 -0.17706642736407,0.08368780301 -0.177734375,0.083984375 -0.094864826104,0.04214325913 -0.17879282085559,0.08339982674 -0.255859375,0.119140625 l 0,-0.001953125 c -0.46265232156205,0.214296724593 -0.9280640947162,0.44826639166 -1.38671875,0.712890625 -0.45938465925605,0.265406360177 -0.89259495179454,0.550873023161 -1.30859375,0.84375 -0.0662085613277,0.04656628228 -0.14318809243468,0.100539849417 -0.23046875,0.1640625 -0.005950715535,0.0043327452 -0.0626479094689,0.03721404768 -0.162109375,0.111328125 -0.25975195232922,0.193555123862 -1.06614244404432,0.387301645473 -1.806640625,0.13671875 l -4.474609375,-1.513671875 c -0.451268289719471,-0.152205835796 -0.947265485298579,0.03491666468 -1.185546875,0.447265625 l -4,6.9296875 c -0.238941053396894,0.412825620326 -0.153088079318111,0.936937585891 0.205078125,1.251953125 l 3.5234375,3.095703125 c 0.0083438632879,0.0073017098 0.01680857523287,0.01446415834 0.025390625,0.021484375 0.586495834756983,0.516172333115 0.820861264730729,1.309893173443 0.783203125,1.630859375 -0.01401252208554,0.119430912418 -0.01443670730051,0.186069835477 -0.015625,0.197265625 -0.01192906889329,0.112608157967 -0.01865055661813,0.206022085843 -0.025390625,0.28125 -0.04561261062553,0.506405447815 -0.07796855299932,1.02566970322 -0.078125,1.556640625 1.56447000679e-4,0.53097092178 0.03251238937447,1.050235177184 0.078125,1.556640625 0.0067400683819,0.07522791416 0.01346155610671,0.168641842033 0.025390625,0.28125 0.0011882926995,0.01119578952 0.0016124779144,0.07783471258 0.015625,0.197265625 0.03765813973073,0.320966201556 -0.19670729024312,1.114687041885 -0.783203125,1.630859375 -5.093464023e-6,4.482735e-6 -0.0019199662669,-3.1744101e-5 -0.001953125,0 l -3.546875,3.1171875 c -0.358166204318344,0.315015539109 -0.444019178396661,0.839127504675 -0.205078125,1.251953125 l 4,6.9296875 c 0.238281389701715,0.412348960322 0.734278585280235,0.599471460796 1.185546875,0.447265625 l 4.474609375,-1.513671875 c 0.74049818095588,-0.250582895473 1.54688867267366,-0.05683637386 1.806640625,0.13671875 0.0994614656433,0.07411407742 0.15615865953115,0.106995379886 0.162109375,0.111328125 0.0872806576523,0.06352265065 0.16426018875576,0.117496217771 0.23046875,0.1640625 0.41599879820644,0.292876976839 0.84920909074684,0.578343639823 1.30859375,0.84375 0.45865465528381,0.26462423334 0.9240664284379,0.498593900407 1.38671875,0.712890625 l 0,-0.001953125 c 0.0770665541333,0.03574079825 0.16099454888089,0.07699736587 0.255859375,0.119140625 6.6794773413e-4,2.96572038e-4 0.0576456187409,0.03224554244 0.177734375,0.083984375 0.2975226225797,0.128184133352 0.86820374298041,0.729298483003 1.021484375,1.49609375 l 0,0.001953125 0.927734375,4.630859375 c 0.0939901235974,0.466904614412 0.50419775362766,0.802751897165 0.98046875,0.802734375 l 8,0 c 0.47627099637234,1.7522165e-5 0.88647862640262,-0.335829760588 0.98046875,-0.802734375 l 0.927734375,-4.630859375 0,-0.001953125 c 0.15328063202011,-0.766795266997 0.72396175242212,-1.367909616648 1.021484375,-1.49609375 0.12008875646627,-0.05173883262 0.17706642736604,-0.08368780301 0.177734375,-0.083984375 0.0948648261019,-0.04214325913 0.17879282085344,-0.08339982674 0.255859375,-0.119140625 l 0,0.001953125 c 0.46265232156293,-0.214296724594 0.92806409471797,-0.448266391662 1.38671875,-0.712890625 0.4593846592561,-0.265406360177 0.89259495179475,-0.550873023162 1.30859375,-0.84375 0.0662085612275,-0.04656628222 0.14318809238542,-0.100539849382 0.23046875,-0.1640625 0.005950715535,-0.0043327452 0.0626479094676,-0.03721404768 0.162109375,-0.111328125 0.25975195232913,-0.193555123863 1.06614244404472,-0.387301645474 1.806640625,-0.13671875 l 4.474609375,1.513671875 c 0.45126828971977,0.152205835796 0.94726548529829,-0.03491666468 1.185546875,-0.447265625 l 4,-6.9296875 c 0.23894105339666,-0.412825620325 0.15308807931834,-0.936937585891 -0.205078125,-1.251953125 l -3.546875,-3.1171875 c -3.315873307e-5,-3.1744101e-5 -0.001948031536,4.482735e-6 -0.001953125,0 -0.5864958347569,-0.516172333115 -0.82086126473074,-1.309893173444 -0.783203125,-1.630859375 0.0140125220856,-0.119430912419 0.0144367073005,-0.186069835478 0.015625,-0.197265625 0.0119290688933,-0.112608157967 0.0186505566181,-0.206022085844 0.025390625,-0.28125 0.0456126106255,-0.506405447816 0.0779685529993,-1.02566970322 0.078125,-1.556640625 -1.5644700067e-4,-0.53097092178 -0.0325123893745,-1.050235177185 -0.078125,-1.556640625 -0.006740068382,-0.07522791416 -0.0134615561067,-0.168641842033 -0.025390625,-0.28125 -0.001188292699,-0.01119578952 -0.001612477914,-0.07783471258 -0.015625,-0.197265625 -0.0376581397307,-0.320966201557 0.19670729024312,-1.114687041885 0.783203125,-1.630859375 5.09346403e-6,-4.482735e-6 0.001919966267,3.1744101e-5 0.001953125,0 l 3.546875,-3.1171875 c 0.35816620431811,-0.315015539109 0.44401917839689,-0.839127504674 0.205078125,-1.251953125 l -4,-6.9296875 c -0.23828138970142,-0.412348960322 -0.73427858528053,-0.599471460796 -1.185546875,-0.447265625 l -4.474609375,1.513671875 c -0.74049818095554,0.250582895473 -1.54688867267059,0.05683637386 -1.806640625,-0.13671875 -0.0994614656436,-0.07411407742 -0.15615865953032,-0.106995379886 -0.162109375,-0.111328125 -0.0872806576584,-0.06352265066 -0.1642601887674,-0.117496217778 -0.23046875,-0.1640625 -0.41599879820517,-0.292876976838 -0.84920909074301,-0.578343639823 -1.30859375,-0.84375 -0.45865465528372,-0.26462423334 -0.9240664284376,-0.498593900407 -1.38671875,-0.712890625 l 0,0.001953125 c -0.0770665541736,-0.03574079827 -0.16099454890282,-0.07699736588 -0.255859375,-0.119140625 -6.6794773596e-4,-2.96572039e-4 -0.0576456187403,-0.03224554244 -0.177734375,-0.083984375 -0.29752262258007,-0.128184133353 -0.8682037429796,-0.729298483003 -1.021484375,-1.49609375 l 0,-0.001953125 -0.927734375,-4.630859375 c -0.0939901235973,-0.466904614411 -0.50419775362778,-0.802751897166 -0.98046875,-0.802734375 z"
       style="color:#000000;font-style:normal;font-variant:normal;font-weight:normal;font-stretch:normal;font-size:medium;line-height:normal;font-family:sans-serif;text-indent:0;text-align:start;text-decoration:none;text-decoration-line:none;text-decoration-style:solid;text-decoration-color:#000000;letter-spacing:normal;word-spacing:normal;text-transform:none;direction:ltr;block-progression:tb;writing-mode:lr-tb;baseline-shift:baseline;text-anchor:start;white-space:normal;clip-rule:nonzero;display:inline;overflow:visible;visibility:visible;opacity:0.4;isolation:auto;mix-blend-mode:normal;color-interpolation:sRGB;color-interpolation-filters:linearRGB;solid-color:#000000;solid-opacity:1;fill:#000000;fill-opacity:1;fill-rule:nonzero;stroke:none;stroke-width:2;stroke-linecap:round;stroke-linejoin:round;stroke-miterlimit:4;stroke-dasharray:none;stroke-dashoffset:0;stroke-opacity:1;filter:url(#filter5015);color-rendering:auto;image-rendering:auto;shape-rendering:auto;text-rendering:auto;enable-background:accumulate" />
    <path
       style="color:#000000;font-style:normal;font-variant:normal;font-weight:normal;font-stretch:normal;font-size:medium;line-height:normal;font-family:sans-serif;text-indent:0;text-align:start;text-decoration:none;text-decoration-line:none;text-decoration-style:solid;text-decoration-color:#000000;letter-spacing:normal;word-spacing:normal;text-transform:none;direction:ltr;block-progression:tb;writing-mode:lr-tb;baseline-shift:baseline;text-anchor:start;white-space:normal;clip-rule:nonzero;display:inline;overflow:visible;visibility:visible;opacity:0.2;isolation:auto;mix-blend-mode:normal;color-interpolation:sRGB;color-interpolation-filters:linearRGB;solid-color:#000000;solid-opacity:1;fill:#000000;fill-opacity:1;fill-rule:nonzero;stroke:none;stroke-width:2;stroke-linecap:round;stroke-linejoin:round;stroke-miterlimit:4;stroke-dasharray:none;stroke-dashoffset:0;stroke-opacity:1;filter:url(#filter5023);color-rendering:auto;image-rendering:auto;shape-rendering:auto;text-rendering:auto;enable-background:accumulate"
       d="m 20,0.4998496821609271 c -0.47627099637222,-1.752216599e-5 -0.88647862640274,0.3358297605890365 -0.98046875,0.802734375 l -0.927734375,4.630859375000001 0,0.001953125 c -0.15328063202016,0.766795266996951 -0.72396175241979,1.367909616647009 -1.021484375,1.496093749999999 -0.12008875646533,0.05173883262 -0.17706642736407,0.08368780300998 -0.177734375,0.083984375 -0.094864826104,0.0421432591299 -0.17879282085559,0.08339982674 -0.255859375,0.119140625 l 0,-0.001953125 C 16.17406642843795,7.846958906753989 15.7086546552838,8.080928573820948 15.25,8.345552807160926 14.79061534074395,8.610959167337988 14.35740504820546,8.89642583032192 13.94140625,9.189302807160929 c -0.0662085613277,0.04656628228 -0.14318809243468,0.100539849417039 -0.23046875,0.1640625 -0.005950715535,0.0043327452 -0.0626479094689,0.03721404768 -0.162109375,0.111328125 -0.25975195232922,0.193555123861991 -1.06614244404432,0.387301645473039 -1.806640625,0.13671875 L 7.267578125,8.087740307160926 C 6.816309835280528,7.93553447136488 6.320312639701421,8.122656971841028 6.08203125,8.535005932160929 l -4,6.9296875 c -0.238941053396895,0.41282562032598 -0.153088079318112,0.93693758589098 0.205078125,1.251953125 l 3.5234375,3.095703125 c 0.0083438632879,0.0073017098 0.01680857523287,0.0144641583399 0.025390625,0.021484375 0.586495834756983,0.51617233311504 0.820861264730729,1.30989317344302 0.783203125,1.630859375 -0.01401252208554,0.11943091241801 -0.01443670730051,0.18606983547692 -0.015625,0.197265625 -0.01192906889329,0.11260815796709 -0.01865055661813,0.20602208584296 -0.025390625,0.28125 -0.04561261062553,0.50640544781504 -0.07796855299932,1.02566970322005 -0.078125,1.556640625 1.56447000679e-4,0.53097092177996 0.03251238937447,1.05023517718405 0.078125,1.556640625 0.0067400683819,0.07522791416 0.01346155610671,0.1686418420329 0.025390625,0.28125 0.0011882926995,0.0111957895199 0.0016124779144,0.0778347125799 0.015625,0.197265625 0.03765813973073,0.32096620155608 -0.19670729024312,1.11468704188497 -0.783203125,1.630859375 -5.093464023e-6,4.482735e-6 -0.0019199662669,-3.174410108e-5 -0.001953125,0 l -3.546875,3.1171875 C 1.928943170681655,30.59806834626996 1.843090196603339,31.12218031183586 2.08203125,31.53500593216094 l 4,6.9296875 c 0.238281389701715,0.4123489603221 0.734278585280235,0.59947146079594 1.185546875,0.447265625 l 4.474609375,-1.513671875 c 0.74049818095588,-0.25058289547291 1.54688867267366,-0.0568363738601 1.806640625,0.13671875 0.0994614656433,0.0741140774201 0.15615865953115,0.10699537988603 0.162109375,0.111328125 0.0872806576523,0.0635226506499 0.16426018875576,0.11749621777107 0.23046875,0.1640625 0.41599879820644,0.29287697683889 0.84920909074684,0.57834363982306 1.30859375,0.84375 0.45865465528381,0.2646242333401 0.9240664284379,0.49859390040706 1.38671875,0.712890625 l 0,-0.001953125 c 0.0770665541333,0.0357407982499 0.16099454888089,0.07699736587 0.255859375,0.119140625 6.6794773413e-4,2.9657203799e-4 0.0576456187409,0.03224554244 0.177734375,0.083984375 0.2975226225797,0.12818413335208 0.86820374298041,0.72929848300305 1.021484375,1.49609375 l 0,0.001953125 0.927734375,4.630859375 c 0.0939901235974,0.46690461441198 0.50419775362766,0.80275189716508 0.98046875,0.802734375 l 8,0 c 0.47627099637234,1.752216508e-5 0.88647862640262,-0.33582976058802 0.98046875,-0.802734375 l 0.927734375,-4.630859375 0,-0.001953125 c 0.15328063202011,-0.76679526699695 0.72396175242212,-1.36790961664792 1.021484375,-1.49609375 0.12008875646627,-0.05173883262 0.17706642736604,-0.08368780301 0.177734375,-0.083984375 0.0948648261019,-0.04214325913 0.17879282085344,-0.0833998267401 0.255859375,-0.119140625 l 0,0.001953125 c 0.46265232156293,-0.21429672459409 0.92806409471797,-0.44826639166196 1.38671875,-0.712890625 0.4593846592561,-0.26540636017694 0.89259495179475,-0.55087302316201 1.30859375,-0.84375 0.0662085612275,-0.0465662822201 0.14318809238542,-0.10053984938191 0.23046875,-0.1640625 0.005950715535,-0.0043327452 0.0626479094676,-0.03721404768 0.162109375,-0.111328125 0.25975195232913,-0.193555123863 1.06614244404472,-0.38730164547406 1.806640625,-0.13671875 l 4.474609375,1.513671875 c 0.45126828971977,0.15220583579594 0.94726548529829,-0.0349166646799 1.185546875,-0.447265625 l 4,-6.9296875 c 0.23894105339666,-0.41282562032508 0.15308807931834,-0.93693758589098 -0.205078125,-1.25195312500001 l -3.546875,-3.11718750000001 c -3.315873307e-5,-3.174410108e-5 -0.001948031536,4.482735e-6 -0.001953125,0 -0.5864958347569,-0.51617233311503 -0.82086126473074,-1.30989317344392 -0.783203125,-1.630859375 0.0140125220856,-0.11943091241892 0.0144367073005,-0.18606983547806 0.015625,-0.197265625 0.0119290688933,-0.11260815796709 0.0186505566181,-0.20602208584409 0.025390625,-0.28125 0.0456126106255,-0.50640544781595 0.0779685529993,-1.02566970322004 0.078125,-1.556640625 -1.5644700067e-4,-0.53097092177995 -0.0325123893745,-1.05023517718496 -0.078125,-1.556640625 -0.006740068382,-0.07522791416 -0.0134615561067,-0.16864184203291 -0.025390625,-0.28125 -0.001188292699,-0.0111957895199 -0.001612477914,-0.0778347125799 -0.015625,-0.197265625 -0.0376581397307,-0.32096620155698 0.19670729024312,-1.11468704188496 0.783203125,-1.630859375 5.09346403e-6,-4.48273499e-6 0.001919966267,3.174410108e-5 0.001953125,0 l 3.546875,-3.1171875 c 0.35816620431811,-0.31501553910902 0.44401917839689,-0.83912750467402 0.205078125,-1.251953125 l -4,-6.9296875 C 41.67968736029858,8.122656971838933 41.18369016471947,7.935534471364875 40.732421875,8.087740307160924 L 36.2578125,9.60141218216092 c -0.74049818095554,0.250582895473039 -1.54688867267059,0.0568363738601 -1.806640625,-0.13671875 -0.0994614656436,-0.0741140774199 -0.15615865953032,-0.106995379886021 -0.162109375,-0.111328125 -0.0872806576584,-0.06352265066 -0.1642601887674,-0.117496217778012 -0.23046875,-0.1640625 C 33.64259495179483,8.896425830322938 33.20938465925699,8.610959167337979 32.75,8.345552807160924 32.29134534471628,8.080928573820944 31.8259335715624,7.846958906753985 31.36328125,7.632662182160927 l 0,0.001953125 c -0.0770665541736,-0.03574079827 -0.16099454890282,-0.0769973658799 -0.255859375,-0.119140625 -6.6794773596e-4,-2.96572039014e-4 -0.0576456187403,-0.03224554244002 -0.177734375,-0.083984375 -0.29752262258007,-0.12818413335299 -0.8682037429796,-0.72929848300305 -1.021484375,-1.49609375 l 0,-0.001953125 L 28.98046875,1.302584057160924 C 28.8864786264027,0.8356794427499638 28.47627099637222,0.499832159994938 28,0.4998496821609271 Z"
       id="path5021"
       inkscape:connector-curvature="0"
       sodipodi:nodetypes="ccccsccccccscccccccscccccscccccccsccccccsccccccccsccccccscccccccscccccscccccccsccccccsccccc" />
  </g>
  <g
     inkscape:groupmode="layer"
     id="layer3"
     inkscape:label="gear">
    <path
       transform="translate(0,-1004.362160509965)"
       style="color:#000000;font-style:normal;font-variant:normal;font-weight:normal;font-stretch:normal;font-size:medium;line-height:normal;font-family:sans-serif;text-indent:0;text-align:start;text-decoration:none;text-decoration-line:none;text-decoration-style:solid;text-decoration-color:#000000;letter-spacing:normal;word-spacing:normal;text-transform:none;direction:ltr;block-progression:tb;writing-mode:lr-tb;baseline-shift:baseline;text-anchor:start;white-space:normal;clip-rule:nonzero;display:inline;overflow:visible;visibility:visible;opacity:1;isolation:auto;mix-blend-mode:normal;color-interpolation:sRGB;color-interpolation-filters:linearRGB;solid-color:#000000;solid-opacity:1;fill:#607d8b;fill-opacity:1;fill-rule:nonzero;stroke:none;stroke-width:2;stroke-linecap:round;stroke-linejoin:round;stroke-miterlimit:4;stroke-dasharray:none;stroke-dashoffset:0;stroke-opacity:1;color-rendering:auto;image-rendering:auto;shape-rendering:auto;text-rendering:auto;enable-background:accumulate"
       d="m 20,1005.362160509965 c -0.47627099637222,-1.7522166e-5 -0.88647862640274,0.335829760589 -0.98046875,0.802734375 l -0.927734375,4.630859375 0,0.001953125 c -0.15328063202016,0.766795266997 -0.72396175241979,1.367909616647 -1.021484375,1.49609375 -0.12008875646533,0.05173883262 -0.17706642736407,0.08368780301 -0.177734375,0.083984375 -0.094864826104,0.04214325913 -0.17879282085559,0.08339982674 -0.255859375,0.119140625 l 0,-0.001953125 c -0.46265232156205,0.214296724593 -0.9280640947162,0.44826639166 -1.38671875,0.712890625 -0.45938465925605,0.265406360177 -0.89259495179454,0.550873023161 -1.30859375,0.84375 -0.0662085613277,0.04656628228 -0.14318809243468,0.100539849417 -0.23046875,0.1640625 -0.005950715535,0.0043327452 -0.0626479094689,0.03721404768 -0.162109375,0.111328125 -0.25975195232922,0.193555123862 -1.06614244404432,0.387301645473 -1.806640625,0.13671875 l -4.474609375,-1.513671875 c -0.451268289719471,-0.152205835796 -0.94726548529858,0.03491666468 -1.185546875,0.447265625 l -4,6.9296875 c -0.238941053396894,0.412825620326 -0.153088079318111,0.936937585891 0.205078125,1.251953125 l 3.5234375,3.095703125 c 0.0083438632879,0.0073017098 0.01680857523287,0.01446415834 0.025390625,0.021484375 0.586495834756983,0.516172333115 0.820861264730729,1.309893173443 0.783203125,1.630859375 -0.01401252208554,0.119430912418 -0.01443670730051,0.186069835477 -0.015625,0.197265625 -0.01192906889329,0.112608157967 -0.01865055661813,0.206022085843 -0.025390625,0.28125 -0.04561261062553,0.506405447815 -0.07796855299932,1.02566970322 -0.078125,1.556640625 1.56447000679e-4,0.53097092178 0.03251238937447,1.050235177184 0.078125,1.556640625 0.0067400683819,0.07522791416 0.01346155610671,0.168641842033 0.025390625,0.28125 0.0011882926995,0.01119578952 0.0016124779144,0.07783471258 0.015625,0.197265625 0.03765813973073,0.320966201556 -0.19670729024312,1.114687041885 -0.783203125,1.630859375 -5.093464023e-6,4.482735e-6 -0.0019199662669,-3.1744101e-5 -0.001953125,0 l -3.546875,3.1171875 c -0.358166204318344,0.315015539109 -0.444019178396661,0.839127504675 -0.205078125,1.251953125 l 4,6.9296875 c 0.238281389701714,0.412348960322 0.734278585280235,0.599471460796 1.185546875,0.447265625 l 4.474609375,-1.513671875 c 0.74049818095588,-0.250582895473 1.54688867267366,-0.05683637386 1.806640625,0.13671875 0.0994614656433,0.07411407742 0.15615865953115,0.106995379886 0.162109375,0.111328125 0.0872806576523,0.06352265065 0.16426018875576,0.117496217771 0.23046875,0.1640625 0.41599879820644,0.292876976839 0.84920909074684,0.578343639823 1.30859375,0.84375 0.45865465528381,0.26462423334 0.9240664284379,0.498593900407 1.38671875,0.712890625 l 0,-0.001953125 c 0.0770665541333,0.03574079825 0.16099454888089,0.07699736587 0.255859375,0.119140625 6.6794773413e-4,2.96572038e-4 0.0576456187409,0.03224554244 0.177734375,0.083984375 0.2975226225797,0.128184133352 0.86820374298041,0.729298483003 1.021484375,1.49609375 l 0,0.001953125 0.927734375,4.630859375 c 0.0939901235974,0.466904614412 0.50419775362766,0.802751897165 0.98046875,0.802734375 l 8,0 c 0.47627099637234,1.7522165e-5 0.88647862640262,-0.335829760588 0.98046875,-0.802734375 l 0.927734375,-4.630859375 0,-0.001953125 c 0.15328063202011,-0.766795266997 0.72396175242212,-1.367909616648 1.021484375,-1.49609375 0.12008875646627,-0.05173883262 0.17706642736604,-0.08368780301 0.177734375,-0.083984375 0.0948648261019,-0.04214325913 0.17879282085344,-0.08339982674 0.255859375,-0.119140625 l 0,0.001953125 c 0.46265232156293,-0.214296724594 0.92806409471797,-0.448266391662 1.38671875,-0.712890625 0.4593846592561,-0.265406360177 0.89259495179475,-0.550873023162 1.30859375,-0.84375 0.0662085612275,-0.04656628222 0.14318809238542,-0.100539849382 0.23046875,-0.1640625 0.005950715535,-0.0043327452 0.0626479094676,-0.03721404768 0.162109375,-0.111328125 0.25975195232913,-0.193555123863 1.06614244404472,-0.387301645474 1.806640625,-0.13671875 l 4.474609375,1.513671875 c 0.45126828971977,0.152205835796 0.94726548529829,-0.03491666468 1.185546875,-0.447265625 l 4,-6.9296875 c 0.23894105339666,-0.412825620325 0.15308807931834,-0.936937585891 -0.205078125,-1.251953125 l -3.546875,-3.1171875 c -3.315873307e-5,-3.1744101e-5 -0.001948031536,4.482735e-6 -0.001953125,0 -0.5864958347569,-0.516172333115 -0.82086126473074,-1.309893173444 -0.783203125,-1.630859375 0.0140125220856,-0.119430912419 0.0144367073005,-0.186069835478 0.015625,-0.197265625 0.0119290688933,-0.112608157967 0.0186505566181,-0.206022085844 0.025390625,-0.28125 0.0456126106255,-0.506405447816 0.0779685529993,-1.02566970322 0.078125,-1.556640625 -1.5644700067e-4,-0.53097092178 -0.0325123893745,-1.050235177185 -0.078125,-1.556640625 -0.006740068382,-0.07522791416 -0.0134615561067,-0.168641842033 -0.025390625,-0.28125 -0.001188292699,-0.01119578952 -0.001612477914,-0.07783471258 -0.015625,-0.197265625 -0.0376581397307,-0.320966201557 0.19670729024312,-1.114687041885 0.783203125,-1.630859375 5.09346403e-6,-4.482735e-6 0.001919966267,3.1744101e-5 0.001953125,0 l 3.546875,-3.1171875 c 0.35816620431811,-0.315015539109 0.44401917839689,-0.839127504674 0.205078125,-1.251953125 l -4,-6.9296875 c -0.23828138970142,-0.412348960322 -0.73427858528053,-0.599471460796 -1.185546875,-0.447265625 l -4.474609375,1.513671875 c -0.74049818095554,0.250582895473 -1.54688867267059,0.05683637386 -1.806640625,-0.13671875 -0.0994614656436,-0.07411407742 -0.15615865953032,-0.106995379886 -0.162109375,-0.111328125 -0.0872806576584,-0.06352265066 -0.1642601887674,-0.117496217778 -0.23046875,-0.1640625 -0.41599879820517,-0.292876976838 -0.84920909074301,-0.578343639823 -1.30859375,-0.84375 -0.45865465528372,-0.26462423334 -0.9240664284376,-0.498593900407 -1.38671875,-0.712890625 l 0,0.001953125 c -0.0770665541736,-0.03574079827 -0.16099454890282,-0.07699736588 -0.255859375,-0.119140625 -6.6794773596e-4,-2.96572039e-4 -0.0576456187403,-0.03224554244 -0.177734375,-0.083984375 -0.29752262258007,-0.128184133353 -0.8682037429796,-0.729298483003 -1.021484375,-1.49609375 l 0,-0.001953125 -0.927734375,-4.630859375 c -0.0939901235973,-0.466904614411 -0.50419775362778,-0.802751897166 -0.98046875,-0.802734375 z"
       id="path4284"
       inkscape:connector-curvature="0"
       sodipodi:nodetypes="ccccsccccccscccccccscccccscccccccsccccccsccccccccsccccccscccccccscccccscccccccsccccccsccccc" />
    <path
       style="color:#000000;font-style:normal;font-variant:normal;font-weight:normal;font-stretch:normal;font-size:medium;line-height:normal;font-family:sans-serif;text-indent:0;text-align:start;text-decoration:none;text-decoration-line:none;text-decoration-style:solid;text-decoration-color:#000000;letter-spacing:normal;word-spacing:normal;text-transform:none;direction:ltr;block-progression:tb;writing-mode:lr-tb;baseline-shift:baseline;text-anchor:start;white-space:normal;clip-rule:nonzero;display:inline;overflow:visible;visibility:visible;opacity:1;isolation:auto;mix-blend-mode:normal;color-interpolation:sRGB;color-interpolation-filters:linearRGB;solid-color:#000000;solid-opacity:1;fill:#7894a1;fill-opacity:1;fill-rule:nonzero;stroke:none;stroke-width:2;stroke-linecap:round;stroke-linejoin:round;stroke-miterlimit:4;stroke-dasharray:none;stroke-dashoffset:0;stroke-opacity:1;color-rendering:auto;image-rendering:auto;shape-rendering:auto;text-rendering:auto;enable-background:accumulate"
       d="M 20 1 C 19.523729 0.99998248 19.113521 1.3358298 19.019531 1.8027344 L 18.091797 6.4335938 L 18.091797 6.4355469 C 17.938516 7.2023421 17.367835 7.8034565 17.070312 7.9316406 C 16.950224 7.9833795 16.893246 8.0153284 16.892578 8.015625 C 16.797713 8.0577683 16.713785 8.0990248 16.636719 8.1347656 L 16.636719 8.1328125 C 16.174066 8.3471092 15.708655 8.5810789 15.25 8.8457031 C 14.790615 9.1111095 14.357405 9.3965761 13.941406 9.6894531 C 13.875198 9.7360194 13.798218 9.789993 13.710938 9.8535156 C 13.704987 9.8578484 13.64829 9.8907297 13.548828 9.9648438 C 13.289076 10.158399 12.482686 10.352145 11.742188 10.101562 L 7.2675781 8.5878906 C 6.8163098 8.4356848 6.3203126 8.6228073 6.0820312 9.0351562 L 2.0820312 15.964844 C 1.8430902 16.377669 1.9289432 16.901781 2.2871094 17.216797 L 2.6210938 17.509766 C 2.4176069 17.19987 2.3889186 16.79849 2.5820312 16.464844 L 6.5820312 9.5351562 C 6.8203126 9.1228072 7.3163098 8.9356848 7.7675781 9.0878906 L 12.242188 10.601562 C 12.982686 10.852145 13.789076 10.658399 14.048828 10.464844 C 14.148288 10.390726 14.204937 10.357816 14.210938 10.353516 C 14.298217 10.289993 14.375196 10.236023 14.441406 10.189453 C 14.857405 9.8965762 15.290615 9.6111095 15.75 9.3457031 C 16.208655 9.0810789 16.674066 8.8471097 17.136719 8.6328125 L 17.136719 8.6347656 C 17.213785 8.599025 17.297718 8.557768 17.392578 8.515625 C 17.393246 8.515329 17.450225 8.4833796 17.570312 8.4316406 C 17.867835 8.3034565 18.438516 7.7023421 18.591797 6.9355469 L 18.591797 6.9335938 L 19.519531 2.3027344 C 19.613521 1.8358298 20.023729 1.4999825 20.5 1.5 L 28.5 1.5 C 28.642399 1.4999948 28.774536 1.5391809 28.898438 1.59375 C 28.739216 1.2428322 28.398936 0.99998532 28 1 L 20 1 z M 30.828125 7.8613281 C 31.037774 8.1531339 31.270667 8.3631283 31.429688 8.4316406 C 31.549777 8.4833795 31.606754 8.5153284 31.607422 8.515625 C 31.702287 8.5577683 31.786215 8.5990279 31.863281 8.6347656 L 31.863281 8.6328125 C 32.325934 8.8471092 32.791345 9.0810789 33.25 9.3457031 C 33.709385 9.6111095 34.142595 9.8965762 34.558594 10.189453 C 34.624802 10.236019 34.701783 10.289996 34.789062 10.353516 C 34.795013 10.357848 34.851712 10.390734 34.951172 10.464844 C 35.210924 10.658403 36.017314 10.852144 36.757812 10.601562 L 41.232422 9.0878906 C 41.48766 9.0018026 41.75133 9.0341581 41.980469 9.1445312 L 41.917969 9.0351562 C 41.679687 8.6228073 41.18369 8.4356848 40.732422 8.5878906 L 36.257812 10.101562 C 35.517314 10.352145 34.710924 10.158399 34.451172 9.9648438 C 34.35171 9.8907297 34.295013 9.8578484 34.289062 9.8535156 C 34.201782 9.789993 34.124802 9.7360194 34.058594 9.6894531 C 33.642595 9.3965761 33.209385 9.1111095 32.75 8.8457031 C 32.291345 8.5810789 31.825934 8.3471092 31.363281 8.1328125 L 31.363281 8.1347656 C 31.286215 8.0990248 31.202287 8.0577683 31.107422 8.015625 C 31.106754 8.0153284 31.049776 7.9833795 30.929688 7.9316406 C 30.900893 7.9192348 30.861411 7.882315 30.828125 7.8613281 z M 6.0703125 20.601562 C 6.4738868 21.094784 6.6509116 21.694054 6.6191406 21.964844 C 6.6051281 22.084275 6.6047039 22.150914 6.6035156 22.162109 C 6.5915866 22.274718 6.5848651 22.368131 6.578125 22.443359 C 6.5325124 22.949765 6.5001564 23.469029 6.5 24 C 6.5001564 24.530971 6.5325124 25.050235 6.578125 25.556641 C 6.5848651 25.631869 6.5915866 25.725282 6.6035156 25.837891 C 6.6047039 25.849086 6.6051281 25.915725 6.6191406 26.035156 C 6.6567988 26.356122 6.4224333 27.149843 5.8359375 27.666016 C 5.8359375 27.666016 5.8339844 27.666016 5.8339844 27.666016 L 2.2871094 30.783203 C 1.9289432 31.098219 1.8430902 31.622331 2.0820312 32.035156 L 6.0820312 38.964844 C 6.18554 39.143967 6.3435519 39.270699 6.5195312 39.355469 L 2.5820312 32.535156 C 2.3430902 32.122331 2.4289432 31.598219 2.7871094 31.283203 L 6.3339844 28.166016 C 6.3339844 28.166016 6.3359375 28.166016 6.3359375 28.166016 C 6.9224333 27.649843 7.1567986 26.856122 7.1191406 26.535156 C 7.1051256 26.415721 7.1047056 26.349091 7.1035156 26.337891 C 7.0915866 26.225282 7.084865 26.131871 7.078125 26.056641 C 7.032512 25.550235 7.0001564 25.030971 7 24.5 C 7.0001564 23.969029 7.0325124 23.449769 7.078125 22.943359 C 7.084866 22.868131 7.0915866 22.774718 7.1035156 22.662109 C 7.1047036 22.650914 7.1051286 22.584275 7.1191406 22.464844 C 7.1567988 22.143878 6.9224333 21.350157 6.3359375 20.833984 C 6.3273555 20.826964 6.3188869 20.8198 6.3105469 20.8125 L 6.0703125 20.601562 z M 42.425781 27.894531 C 42.501461 27.987463 42.570954 28.084071 42.664062 28.166016 C 42.664062 28.166016 42.666016 28.166016 42.666016 28.166016 L 45.878906 30.990234 C 45.830616 30.916692 45.781586 30.843623 45.712891 30.783203 L 42.425781 27.894531 z M 17.671875 40.638672 C 17.854472 40.892824 18.020442 41.207497 18.091797 41.564453 L 18.091797 41.566406 L 19.019531 46.197266 C 19.08542 46.524572 19.31106 46.778306 19.601562 46.90625 C 19.570698 46.838224 19.534792 46.77308 19.519531 46.697266 L 18.591797 42.066406 L 18.591797 42.064453 C 18.453351 41.37187 17.982517 40.834534 17.671875 40.638672 z "
       id="path4294" />
    <path
       style="color:#000000;font-style:normal;font-variant:normal;font-weight:normal;font-stretch:normal;font-size:medium;line-height:normal;font-family:sans-serif;text-indent:0;text-align:start;text-decoration:none;text-decoration-line:none;text-decoration-style:solid;text-decoration-color:#000000;letter-spacing:normal;word-spacing:normal;text-transform:none;direction:ltr;block-progression:tb;writing-mode:lr-tb;baseline-shift:baseline;text-anchor:start;white-space:normal;clip-rule:nonzero;display:inline;overflow:visible;visibility:visible;opacity:1;isolation:auto;mix-blend-mode:normal;color-interpolation:sRGB;color-interpolation-filters:linearRGB;solid-color:#000000;solid-opacity:1;fill:#556f7b;fill-opacity:1;fill-rule:nonzero;stroke:none;stroke-width:2;stroke-linecap:round;stroke-linejoin:round;stroke-miterlimit:4;stroke-dasharray:none;stroke-dashoffset:0;stroke-opacity:1;color-rendering:auto;image-rendering:auto;shape-rendering:auto;text-rendering:auto;enable-background:accumulate"
       d="M 28.398438 1.09375 C 28.429303 1.1617764 28.465207 1.2269202 28.480469 1.3027344 L 29.408203 5.9335938 L 29.408203 5.9355469 C 29.546649 6.6281305 30.017484 7.165467 30.328125 7.3613281 C 30.145528 7.1071756 29.979558 6.7925027 29.908203 6.4355469 L 29.908203 6.4335938 L 28.980469 1.8027344 C 28.91458 1.4754283 28.68894 1.2216937 28.398438 1.09375 z M 41.480469 8.6445312 L 45.417969 15.464844 C 45.65691 15.877669 45.571057 16.401781 45.212891 16.716797 L 41.666016 19.833984 C 41.666016 19.833984 41.664062 19.833984 41.664062 19.833984 C 41.077568 20.350157 40.843199 21.143878 40.880859 21.464844 C 40.894889 21.584279 40.895284 21.650909 40.896484 21.662109 C 40.908414 21.774718 40.915175 21.868129 40.921875 21.943359 C 40.967495 22.449765 40.999844 22.969029 41 23.5 C 40.999844 24.030971 40.96753 24.550231 40.921875 25.056641 C 40.915135 25.131869 40.908414 25.225282 40.896484 25.337891 C 40.895294 25.349086 40.894869 25.415725 40.880859 25.535156 C 40.843201 25.856122 41.077568 26.649843 41.664062 27.166016 C 41.664062 27.166016 41.666016 27.166016 41.666016 27.166016 L 41.925781 27.394531 C 41.52475 26.902077 41.34918 26.305168 41.380859 26.035156 C 41.394872 25.915725 41.395296 25.849086 41.396484 25.837891 C 41.408413 25.725282 41.415135 25.631869 41.421875 25.556641 C 41.467488 25.050235 41.499844 24.530971 41.5 24 C 41.499844 23.469029 41.467488 22.949765 41.421875 22.443359 C 41.415135 22.368131 41.408413 22.274718 41.396484 22.162109 C 41.395296 22.150914 41.394872 22.084275 41.380859 21.964844 C 41.343201 21.643878 41.577567 20.850157 42.164062 20.333984 C 42.164062 20.333984 42.166016 20.333984 42.166016 20.333984 L 45.712891 17.216797 C 46.071057 16.901781 46.15691 16.377669 45.917969 15.964844 L 41.917969 9.0351562 C 41.81446 8.8560331 41.656448 8.7293005 41.480469 8.6445312 z M 2.1210938 17.009766 C 2.1693842 17.083308 2.2184137 17.156377 2.2871094 17.216797 L 5.5703125 20.101562 C 5.4955308 20.010169 5.4276248 19.914678 5.3359375 19.833984 C 5.3273555 19.826964 5.3188869 19.8198 5.3105469 19.8125 L 2.1210938 17.009766 z M 45.378906 30.490234 C 45.582393 30.80013 45.611081 31.20151 45.417969 31.535156 L 41.417969 38.464844 C 41.179687 38.877189 40.68369 39.064315 40.232422 38.912109 L 35.757812 37.398438 C 35.017314 37.147856 34.210924 37.341601 33.951172 37.535156 C 33.851712 37.609274 33.795063 37.642184 33.789062 37.646484 C 33.701783 37.710007 33.624804 37.763977 33.558594 37.810547 C 33.142595 38.103424 32.709385 38.388891 32.25 38.654297 C 31.791345 38.918921 31.325934 39.152892 30.863281 39.367188 L 30.863281 39.365234 C 30.786215 39.400975 30.702282 39.442235 30.607422 39.484375 C 30.606754 39.484665 30.549777 39.516619 30.429688 39.568359 C 30.132165 39.696544 29.561484 40.297658 29.408203 41.064453 L 29.408203 41.066406 L 28.480469 45.697266 C 28.386479 46.16417 27.976271 46.500018 27.5 46.5 L 19.5 46.5 C 19.357601 46.500005 19.225464 46.460819 19.101562 46.40625 C 19.260784 46.757168 19.601064 47.000015 20 47 L 28 47 C 28.476271 47.000018 28.886479 46.66417 28.980469 46.197266 L 29.908203 41.566406 L 29.908203 41.564453 C 30.061484 40.797658 30.632165 40.196544 30.929688 40.068359 C 31.049776 40.016621 31.106754 39.984672 31.107422 39.984375 C 31.202287 39.942232 31.286215 39.900975 31.363281 39.865234 L 31.363281 39.867188 C 31.825934 39.652891 32.291345 39.418921 32.75 39.154297 C 33.209385 38.888891 33.642595 38.603424 34.058594 38.310547 C 34.124802 38.263981 34.201782 38.210007 34.289062 38.146484 C 34.295013 38.142152 34.35171 38.10927 34.451172 38.035156 C 34.710924 37.841601 35.517314 37.647855 36.257812 37.898438 L 40.732422 39.412109 C 41.18369 39.564315 41.679687 39.377193 41.917969 38.964844 L 45.917969 32.035156 C 46.15691 31.622331 46.071057 31.098219 45.712891 30.783203 L 45.378906 30.490234 z M 11.800781 37.287109 C 11.616991 37.30116 11.427312 37.335792 11.242188 37.398438 L 6.7675781 38.912109 C 6.5123394 38.998198 6.2486637 38.965842 6.0195312 38.855469 L 6.0820312 38.964844 C 6.3203126 39.377193 6.8163098 39.564315 7.2675781 39.412109 L 11.742188 37.898438 C 12.482686 37.647855 13.289076 37.841601 13.548828 38.035156 C 13.64829 38.10927 13.704987 38.142152 13.710938 38.146484 C 13.798218 38.210007 13.875198 38.263981 13.941406 38.310547 C 14.357405 38.603424 14.790615 38.888891 15.25 39.154297 C 15.708655 39.418921 16.174066 39.652891 16.636719 39.867188 L 16.636719 39.865234 C 16.713785 39.900975 16.797713 39.942232 16.892578 39.984375 C 16.893246 39.984672 16.950224 40.016621 17.070312 40.068359 C 17.099107 40.080765 17.138589 40.117685 17.171875 40.138672 C 16.962226 39.846866 16.729334 39.636872 16.570312 39.568359 C 16.450228 39.516629 16.393246 39.484672 16.392578 39.484375 C 16.297713 39.442234 16.213789 39.400974 16.136719 39.365234 L 16.136719 39.367188 C 15.674066 39.152891 15.208655 38.918921 14.75 38.654297 C 14.290615 38.388891 13.857405 38.103424 13.441406 37.810547 C 13.375198 37.763981 13.298217 37.710004 13.210938 37.646484 C 13.204987 37.642152 13.148288 37.609266 13.048828 37.535156 C 12.854014 37.389987 12.352152 37.244958 11.800781 37.287109 z "
       id="path4299" />
  </g>
  <g
     inkscape:groupmode="layer"
     id="layer4"
     inkscape:label="dot long shadow"
     style="display:inline">
    <rect
       style="opacity:0.3;fill:url(#linearGradient4983);fill-opacity:1;fill-rule:nonzero;stroke:none;stroke-width:2;stroke-linecap:butt;stroke-linejoin:round;stroke-miterlimit:4;stroke-dasharray:none;stroke-dashoffset:0;stroke-opacity:1"
       id="rect4400"
       width="28"
       height="31.99997711181641"
       x="-892.5877685546875"
       y="534.9656982421875"
       inkscape:transform-center-y="8.000010079597418"
       transform="matrix(0.5,-0.8660254037844385,0.8660254037844385,0.5,0,-1004.362160509965)"
       inkscape:transform-center-x="-13.85639739411077"
       mask="url(#mask5005)" />
  </g>
  <g
     inkscape:groupmode="layer"
     id="layer5"
     inkscape:label="dot shadow"
     style="display:inline">
    <circle
       transform="translate(0,-1004.362160509965)"
       r="14.00002193450928"
       cy="1028.362182617188"
       cx="24"
       id="circle5035"
       style="opacity:0.3;fill:#000000;fill-opacity:1;fill-rule:nonzero;stroke:none;stroke-width:1;stroke-linecap:round;stroke-linejoin:round;stroke-miterlimit:4;stroke-dasharray:none;stroke-dashoffset:0;stroke-opacity:1;filter:url(#filter5050)" />
    <circle
       style="opacity:0.2;fill:#000000;fill-opacity:1;fill-rule:nonzero;stroke:none;stroke-width:1;stroke-linecap:round;stroke-linejoin:round;stroke-miterlimit:4;stroke-dasharray:none;stroke-dashoffset:0;stroke-opacity:1;filter:url(#filter5076)"
       id="circle5054"
       cx="24"
       cy="24.99997329711914"
       r="14.00002193450928" />
  </g>
  <g
     inkscape:label="dot"
     inkscape:groupmode="layer"
     id="layer1"
     transform="translate(0,-1004.362160509965)">
    <path
       inkscape:transform-center-y="-17.00000035672872"
       sodipodi:nodetypes="ccccc"
       inkscape:connector-curvature="0"
       id="path4313"
       d="m 52,1016.362160509965 2,-10 8,0 2,10 z"
       style="fill:#ffffff;fill-opacity:1;fill-rule:evenodd;stroke:none;stroke-width:1px;stroke-linecap:butt;stroke-linejoin:miter;stroke-opacity:1" />
    <circle
       r="14.00002193450928"
       cy="1028.362182617188"
       cx="24"
       id="circle4316"
       style="opacity:1;fill:#607d8b;fill-opacity:0;fill-rule:nonzero;stroke:none;stroke-width:2;stroke-linecap:round;stroke-linejoin:round;stroke-miterlimit:4;stroke-dasharray:none;stroke-dashoffset:0;stroke-opacity:0.5019607843" />
    <circle
       r="16.00002288818359"
       cy="1028.362182617188"
       cx="-34"
       id="circle4323"
       style="opacity:1;fill:#ffffff;fill-opacity:1;fill-rule:nonzero;stroke:none;stroke-width:2;stroke-linecap:round;stroke-linejoin:round;stroke-miterlimit:4;stroke-dasharray:none;stroke-dashoffset:0;stroke-opacity:0.5019607843" />
    <path
       id="path4325"
       d="m -38,1006.362160509965 -2,10 12,0 -2,-10 -8,0 z m -13.052734375,7.53515625 -4,6.9296875 7.66015625,6.73046875 6,-10.390625 -9.66015625,-3.26953125 z m 34.10546875,0 -9.66015625,3.26953125 6,10.390625 7.66015625,-6.73046875 -4,-6.9296875 z m -30.4453125,15.26953125 -7.66015625,6.73046875 4,6.9296875 9.66015625,-3.26953125 -6,-10.390625 z m 26.78515625,0 -6,10.390625 9.66015625,3.26953125 4,-6.9296875 -7.66015625,-6.73046875 z M -40,1040.362160509965 l 2,10 8,0 2,-10 -12,0 z"
       style="fill:#ffffff;fill-opacity:1;fill-rule:evenodd;stroke:none;stroke-width:1px;stroke-linecap:butt;stroke-linejoin:miter;stroke-opacity:1"
       inkscape:connector-curvature="0" />
    <circle
       r="16.5"
       cy="1188.862182617188"
       cx="24"
       id="circle4328"
       style="opacity:1;fill:#ffffff;fill-opacity:1;fill-rule:nonzero;stroke:none;stroke-width:2;stroke-linecap:round;stroke-linejoin:round;stroke-miterlimit:4;stroke-dasharray:none;stroke-dashoffset:0;stroke-opacity:0.5019607843" />
    <path
       id="path4330"
       d="m 20,1166.862138402742 -2,10 12,0 -2,-10 -8,0 z m -13.052734375,7.53515625 -4,6.9296875 7.66015625,6.73046875 6,-10.390625 -9.66015625,-3.26953125 z m 34.10546875,0 -9.66015625,3.26953125 6,10.390625 7.66015625,-6.73046875 -4,-6.9296875 z m -30.4453125,15.26953125 -7.66015625,6.73046875 4,6.9296875 9.66015625,-3.26953125 -6,-10.390625 z m 26.78515625,0 -6,10.390625 9.66015625,3.26953125 4,-6.9296875 -7.66015625,-6.73046875 z M 18,1200.862138402742 l 2,10 8,0 2,-10 -12,0 z"
       style="fill:#ffffff;fill-opacity:1;fill-rule:evenodd;stroke:none;stroke-width:1px;stroke-linecap:butt;stroke-linejoin:miter;stroke-opacity:1"
       inkscape:connector-curvature="0" />
    <circle
       style="opacity:1;fill:#ffffff;fill-opacity:1;fill-rule:nonzero;stroke:none;stroke-width:2;stroke-linecap:round;stroke-linejoin:round;stroke-miterlimit:4;stroke-dasharray:none;stroke-dashoffset:0;stroke-opacity:1"
       id="path4335"
       cx="5.607647895812988"
       cy="1065.648803710938"
       r="2.000022172927856" />
    <circle
       style="opacity:1;fill:#8bc34a;fill-opacity:1;fill-rule:nonzero;stroke:url(#linearGradient4991);stroke-width:0.5;stroke-linecap:round;stroke-linejoin:round;stroke-miterlimit:4;stroke-dasharray:none;stroke-dashoffset:0;stroke-opacity:1"
       id="circle4901"
       cx="24"
       cy="1028.3622"
       r="13.746428" />
    <g
       id="g4897"
       transform="matrix(0.5000000000000025,0,0,0.5000000000000026,11.99999999999993,1016.362160509965)">
      <path
         id="path4887"
         d="m 24,12 0,6 8,-8 -8,-8 0,6 C 15.16,8 8,15.16 8,24 c 0,3.14 0.919999999999998,6.05 2.48,8.52 l 2.92,-2.92000000000001 c -0.89,-1.67000000000001 -1.4,-3.57 -1.4,-5.60000000000001 0,-6.62999999999999 5.37,-11.99999999999999 12,-11.99999999999999 z m 13.52,3.48 -2.92,2.92 c 0.89,1.67 1.4,3.57 1.4,5.6 0,6.63 -5.37000000000005,12 -12.00000000000005,12 l 0,-6 -8,8 8,8 0,-6 C 32.84000000000001,40 40,32.84000000000001 40,24 40,20.86 39.07999999999999,17.95 37.52000000000001,15.48 Z"
         inkscape:connector-curvature="0"
         style="fill:#ffffff;fill-opacity:1" />
      <path
         id="path4889"
         d="M 0,0 48,0 48,48 0,48 Z"
         inkscape:connector-curvature="0"
         style="fill:none" />
    </g>
  </g>
</svg>
